<svg width="368" height="368" viewBox="0 0 368 368" fill="none" xmlns="http://www.w3.org/2000/svg">
<g filter="url(#filter0_d)">
<rect width="360" height="360" transform="translate(4)" fill="#F2C94C"/>
<mask id="mask0" mask-type="alpha" maskUnits="userSpaceOnUse" x="44" y="40" width="280" height="280">
<path d="M324 180C324 257.32 261.32 320 184 320C106.68 320 44 257.32 44 180C44 102.68 106.68 40 184 40C261.32 40 324 102.68 324 180Z" fill="#333333"/>
</mask>
<g mask="url(#mask0)">
<path fill-rule="evenodd" clip-rule="evenodd" d="M213.928 80.6043H152.921C145.292 80.6043 139.108 86.7886 139.108 94.4173V155.424C139.108 163.053 145.292 169.237 152.921 169.237H213.928C221.557 169.237 227.741 163.053 227.741 155.424V94.4173C227.741 86.7886 221.557 80.6043 213.928 80.6043ZM152.921 76C142.749 76 134.504 84.2457 134.504 94.4173V155.424C134.504 165.596 142.749 173.842 152.921 173.842H213.928C224.1 173.842 232.345 165.596 232.345 155.424V94.4173C232.345 84.2457 224.1 76 213.928 76H152.921Z" fill="#333333"/>
<path d="M191.712 125.697H180.972V137H177.597V111.406H193.452V114.184H180.972V122.938H191.712V125.697Z" fill="black"/>
<path fill-rule="evenodd" clip-rule="evenodd" d="M195.511 154.273H172.489V152.273H195.511V154.273Z" fill="black"/>
<path fill-rule="evenodd" clip-rule="evenodd" d="M103.424 80.6043H42.4173C34.7886 80.6043 28.6043 86.7886 28.6043 94.4173V155.424C28.6043 163.053 34.7886 169.237 42.4173 169.237H103.424C111.053 169.237 117.237 163.053 117.237 155.424V94.4173C117.237 86.7886 111.053 80.6043 103.424 80.6043ZM42.4173 76C32.2457 76 24 84.2457 24 94.4173V155.424C24 165.596 32.2457 173.842 42.4173 173.842H103.424C113.596 173.842 121.842 165.596 121.842 155.424V94.4173C121.842 84.2457 113.596 76 103.424 76H42.4173Z" fill="#E0E0E0"/>
<path d="M65.2301 137V111.406H72.4548C74.6813 111.406 76.6501 111.898 78.361 112.883C80.0719 113.867 81.3903 115.268 82.3161 117.084C83.2536 118.9 83.7282 120.986 83.7399 123.342V124.977C83.7399 127.391 83.2712 129.506 82.3337 131.322C81.4079 133.139 80.0778 134.533 78.3434 135.506C76.6208 136.479 74.611 136.977 72.3141 137H65.2301ZM68.6051 114.184V134.24H72.1559C74.7575 134.24 76.779 133.432 78.2204 131.814C79.6735 130.197 80.4001 127.895 80.4001 124.906V123.412C80.4001 120.506 79.7145 118.25 78.3434 116.645C76.9841 115.027 75.0505 114.207 72.5426 114.184H68.6051Z" fill="#E0E0E0"/>
<path fill-rule="evenodd" clip-rule="evenodd" d="M159.827 189.957H98.8202C91.1915 189.957 85.0072 196.141 85.0072 203.77V264.777C85.0072 272.406 91.1915 278.59 98.8202 278.59H159.827C167.456 278.59 173.64 272.406 173.64 264.777V203.77C173.64 196.141 167.456 189.957 159.827 189.957ZM98.8202 185.353C88.6486 185.353 80.4029 193.598 80.4029 203.77V264.777C80.4029 274.949 88.6486 283.194 98.8202 283.194H159.827C169.999 283.194 178.245 274.949 178.245 264.777V203.77C178.245 193.598 169.999 185.353 159.827 185.353H98.8202Z" fill="#333333"/>
<path d="M139.396 238.231C139.08 240.938 138.078 243.03 136.39 244.507C134.714 245.972 132.482 246.704 129.693 246.704C126.669 246.704 124.244 245.62 122.416 243.452C120.599 241.284 119.691 238.384 119.691 234.751V232.29C119.691 229.911 120.113 227.819 120.957 226.015C121.812 224.21 123.019 222.827 124.578 221.866C126.136 220.894 127.941 220.407 129.992 220.407C132.71 220.407 134.89 221.169 136.531 222.692C138.171 224.204 139.126 226.302 139.396 228.985H136.003C135.71 226.946 135.072 225.47 134.087 224.556C133.115 223.642 131.75 223.185 129.992 223.185C127.835 223.185 126.142 223.981 124.912 225.575C123.693 227.169 123.084 229.437 123.084 232.378V234.856C123.084 237.634 123.664 239.843 124.824 241.483C125.984 243.124 127.607 243.944 129.693 243.944C131.568 243.944 133.003 243.522 134 242.679C135.007 241.823 135.675 240.341 136.003 238.231H139.396Z" fill="black"/>
<path fill-rule="evenodd" clip-rule="evenodd" d="M269.18 189.957H208.173C200.544 189.957 194.36 196.141 194.36 203.77V264.777C194.36 272.406 200.544 278.59 208.173 278.59H269.18C276.809 278.59 282.993 272.406 282.993 264.777V203.77C282.993 196.141 276.809 189.957 269.18 189.957ZM208.173 185.353C198.001 185.353 189.755 193.598 189.755 203.77V264.777C189.755 274.949 198.001 283.194 208.173 283.194H269.18C279.351 283.194 287.597 274.949 287.597 264.777V203.77C287.597 193.598 279.351 185.353 269.18 185.353H208.173Z" fill="#333333"/>
<path d="M239.81 241.87L247.122 220.759H250.814L241.321 246.353H238.333L228.859 220.759H232.532L239.81 241.87Z" fill="black"/>
<path fill-rule="evenodd" clip-rule="evenodd" d="M324.432 80.6043H263.424C255.796 80.6043 249.612 86.7886 249.612 94.4173V155.424C249.612 163.053 255.796 169.237 263.424 169.237H324.432C332.06 169.237 338.245 163.053 338.245 155.424V94.4173C338.245 86.7886 332.06 80.6043 324.432 80.6043ZM263.424 76C253.253 76 245.007 84.2457 245.007 94.4173V155.424C245.007 165.596 253.253 173.842 263.424 173.842H324.432C334.603 173.842 342.849 165.596 342.849 155.424V94.4173C342.849 84.2457 334.603 76 324.432 76H263.424Z" fill="#E0E0E0"/>
<path d="M304.677 133.643C303.81 134.885 302.597 135.816 301.038 136.438C299.491 137.047 297.687 137.352 295.624 137.352C293.538 137.352 291.687 136.865 290.069 135.893C288.452 134.908 287.198 133.514 286.308 131.709C285.429 129.904 284.978 127.812 284.954 125.434V123.201C284.954 119.346 285.851 116.357 287.644 114.236C289.448 112.115 291.98 111.055 295.237 111.055C297.909 111.055 300.06 111.74 301.689 113.111C303.317 114.471 304.314 116.404 304.677 118.912H301.302C300.669 115.525 298.653 113.832 295.255 113.832C292.993 113.832 291.276 114.629 290.105 116.223C288.944 117.805 288.358 120.102 288.347 123.113V125.205C288.347 128.076 289.003 130.361 290.315 132.061C291.628 133.748 293.403 134.592 295.642 134.592C296.907 134.592 298.015 134.451 298.964 134.17C299.913 133.889 300.698 133.414 301.319 132.746V126.998H295.396V124.256H304.677V133.643Z" fill="#E0E0E0"/>
</g>
</g>
<defs>
<filter id="filter0_d" x="0" y="0" width="368" height="368" filterUnits="userSpaceOnUse" color-interpolation-filters="sRGB">
<feFlood flood-opacity="0" result="BackgroundImageFix"/>
<feColorMatrix in="SourceAlpha" type="matrix" values="0 0 0 0 0 0 0 0 0 0 0 0 0 0 0 0 0 0 127 0"/>
<feOffset dy="4"/>
<feGaussianBlur stdDeviation="2"/>
<feColorMatrix type="matrix" values="0 0 0 0 0 0 0 0 0 0 0 0 0 0 0 0 0 0 0.25 0"/>
<feBlend mode="normal" in2="BackgroundImageFix" result="effect1_dropShadow"/>
<feBlend mode="normal" in="SourceGraphic" in2="effect1_dropShadow" result="shape"/>
</filter>
</defs>
</svg>
